#!OML:ASF F:\VICON\USERDATA\INSTALL\rory3\rory3.ASF
:FULLY-SPECIFIED
:DEGREES
403
root 0.258472 17.7898 44.0569 -3.85899 -1.11665 0.665936
lowerback 11.0443 0.108136 -1.74198
upperback 0.672092 -0.00901102 1.12293
thorax -5.49441 0.0516977 2.16075
lowerneck -15.5121 -2.76301 -3.41889
upperneck 19.9587 -3.53646 2.4742
head 8.91769 -1.65545 0.977026
rclavicle -1.14674e-014 -1.39149e-014
rhumerus -30.0548 -15.1161 -81.8038
rradius 32.9003
rwrist 3.85187
rhand -19.623 24.381
rfingers 7.12502
rthumb 6.70375 -5.49292
lclavicle -1.14674e-014 -1.39149e-014
lhumerus -27.3126 0.955827 81.1684
lradius 26.8275
lwrist 7.70122
lhand -24.093 29.4526
lfingers 7.12502
lthumb 2.38752 59.419
rfemur -28.9726 -4.97106 21.4586
rtibia 62.4905
rfoot -8.64969 -6.45888
rtoes 5.15571
lfemur -3.71811 -3.25843 -25.9737
ltibia 27.8519
lfoot -15.788 1.17901
ltoes 4.43375
404
root 0.249964 17.7807 44.2232 -3.80642 -1.11143 0.630727
lowerback 11.128 0.104319 -1.77514
upperback 0.654003 -0.016372 1.17519
thorax -5.56 0.0505027 2.23618
lowerneck -15.8107 -2.89695 -3.67366
upperneck 20.2047 -3.71225 2.72962
head 9.07324 -1.72628 1.08072
rclavicle 3.13086e-015 4.77083e-015
rhumerus -30.224 -14.9458 -81.7896
rradius 32.5833
rwrist 3.81414
rhand -19.5816 24.7204
rfingers 7.12502
rthumb 6.74376 -5.15222
lclavicle 3.13086e-015 4.77083e-015
lhumerus -27.0061 -0.430997 81.5897
lradius 26.276
lwrist 5.28943
lhand -28.9011 21.8336
lfingers 7.12502
lthumb -2.2562 51.8014
rfemur -29.5201 -4.52008 21.5695
rtibia 60.4075
rfoot -8.9592 -7.42233
rtoes 4.07447
lfemur -3.05296 -3.28143 -25.9797
ltibia 27.5902
lfoot -16.1435 1.45454
ltoes 4.34489
405
root 0.242995 17.7831 44.4259 -4.03845 -0.900753 1.09097
lowerback 11.0555 0.051818 -2.23087
upperback 0.803842 -0.147962 1.06263
thorax -5.35416 -0.00883607 2.39481
lowerneck -15.942 -2.91477 -3.7884
upperneck 20.2448 -3.74091 2.89015
head 9.11782 -1.72958 1.14951
rclavicle 1.80521e-014 1.43125e-014
rhumerus -30.5604 -14.5981 -81.8181
rradius 32.7532
rwrist 3.75076
rhand -19.0968 22.5544
rfingers 7.12502
rthumb 7.21169 -7.30272
lclavicle 1.80521e-014 1.43125e-014
lhumerus -26.5677 -1.04272 81.5798
lradius 26.9773
lwrist 5.87118
lhand -28.7449 21.6264
lfingers 7.12502
lthumb -2.10534 51.5958
rfemur -29.4235 -4.32917 20.9545
rtibia 58.189
rfoot -9.67913 -8.2325
rtoes 3.74417
lfemur -1.8423 -3.07941 -26.5585
ltibia 26.9485
lfoot -16.5439 1.50482
ltoes 3.41047
406
root 0.22037 17.7771 44.5415 -3.62871 -1.12614 0.557158
lowerback 11.4453 0.0923679 -1.93142
upperback 0.623385 -0.0531681 1.2378
thorax -5.76807 0.0401744 2.39879
lowerneck -16.1017 -3.08936 -3.9326
upperneck 20.1274 -3.99521 3.14094
head 9.12469 -1.83066 1.22476
rclavicle -1.23495e-014 -1.43125e-014
rhumerus -30.6854 -14.3509 -81.9903
rradius 32.8489
rwrist 3.71618
rhand -18.6806 20.4188
rfingers 7.12502
rthumb 7.61349 -9.4242
lclavicle -1.23495e-014 -1.43125e-014
lhumerus -26.1006 -1.48645 81.464
lradius 27.7172
lwrist 6.29158
lhand -28.6332 21.4881
lfingers 7.12502
lthumb -1.99743 51.4585
rfemur -30.4335 -3.15313 21.6903
rtibia 55.7683
rfoot -9.49206 -9.67204
rtoes 3.28933
lfemur -1.63542 -2.96552 -25.8664
ltibia 26.2476
lfoot -16.3858 1.57951
ltoes 3.1665
407
root 0.228208 17.7701 44.7266 -3.62598 -0.717082 1.31063
lowerback 10.6973 -0.0866954 -2.52556
upperback 1.14909 -0.361184 1.00579
thorax -4.77781 -0.121004 2.52798
lowerneck -16.5376 -3.01191 -3.59182
upperneck 19.7806 -3.88081 2.84017
head 9.06644 -1.7802 1.07509
rclavicle 1.22998e-014 1.07344e-014
rhumerus -29.9907 -14.1306 -82.3873
rradius 32.5919
rwrist 3.47278
rhand -19.4073 24.4518
rfingers 7.12502
rthumb 6.91197 -5.41532
lclavicle 1.22998e-014 1.07344e-014
lhumerus -24.94 -1.55291 81.2613
lradius 28.1905
lwrist 6.1788
lhand -27.6833 22.2094
lfingers 7.12502
lthumb -1.08008 52.1864
rfemur -30.5631 -3.40717 20.6592
rtibia 53.3288
rfoot -9.55793 -10.2779
rtoes 2.71186
lfemur -0.30184 -3.03512 -26.8245
ltibia 25.2638
lfoot -16.5563 1.56264
ltoes 2.87496
408
root 0.216977 17.7638 44.8993 -3.57318 -0.537613 1.81616
lowerback 11.0241 -0.107698 -3.14243
upperback 0.87961 -0.477932 0.940845
thorax -5.23167 -0.154744 2.8324
lowerneck -16.2275 -2.99159 -3.72951
upperneck 19.8099 -3.8559 2.95842
head 9.02447 -1.76939 1.14505
rclavicle -8.52289e-015 -4.77083e-015
rhumerus -30.7608 -13.8637 -82.2897
rradius 32.6946
rwrist 3.30372
rhand -19.1403 21.8918
rfingers 7.12502
rthumb 7.16972 -7.96674
lclavicle -8.52289e-015 -4.77083e-015
lhumerus -24.9574 -1.92627 81.2247
lradius 28.6821
lwrist 5.99898
lhand -26.4782 23.2226
lfingers 7.12502
lthumb 0.0838707 53.2023
rfemur -30.6874 -3.05562 20.0178
rtibia 50.5369
rfoot -9.25078 -11.2898
rtoes 1.92633
lfemur 0.349891 -2.95386 -27.3806
ltibia 25.0194
lfoot -16.952 1.46627
ltoes 3.53748
409
root 0.203393 17.7679 45.0752 -3.60707 -0.374582 2.00248
lowerback 10.7709 -0.156294 -3.4773
upperback 1.12051 -0.569552 0.985394
thorax -4.8269 -0.204182 3.07667
lowerneck -16.6221 -3.21738 -4.1453
upperneck 19.8312 -4.12269 3.29498
head 9.13105 -1.88428 1.28977
rclavicle 2.55935e-015 -1.59028e-014
rhumerus -30.6813 -13.738 -82.2884
rradius 32.5786
rwrist 3.57776
rhand -18.6677 18.7812
rfingers 7.12502
rthumb 7.62587 -11.0613
lclavicle 2.55935e-015 -1.59028e-014
lhumerus -24.2058 -2.3803 81.246
lradius 29.0739
lwrist 6.29033
lhand -26.3977 23.1855
lfingers 7.12502
lthumb 0.161623 53.1652
rfemur -30.5112 -2.56734 19.6938
rtibia 47.5449
rfoot -8.94606 -12.265
rtoes 1.42569
lfemur 1.21732 -2.83729 -27.5736
ltibia 24.3994
lfoot -17.15 1.33948
ltoes 3.88267
410
root 0.179317 17.7672 45.1645 -2.89217 -0.802817 0.550911
lowerback 11.6656 -0.148789 -2.23714
upperback 0.357778 -0.405823 1.42918
thorax -6.14956 -0.113195 2.83664
lowerneck -15.8602 -2.86079 -3.67387
upperneck 19.7095 -3.67169 2.83658
head 8.91255 -1.69633 1.12179
rclavicle 1.50331e-014 1.11319e-014
rhumerus -31.4084 -13.6667 -82.1769
rradius 32.2362
rwrist 3.81352
rhand -18.4344 18.4515
rfingers 7.12502
rthumb 7.85112 -11.3828
lclavicle 1.50331e-014 1.11319e-014
lhumerus -24.3073 -3.18996 81.212
lradius 29.4395
lwrist 7.01916
lhand -26.747 22.625
lfingers 7.12502
lthumb -0.175695 52.6047
rfemur -31.3421 -0.702578 21.257
rtibia 44.2105
rfoot -7.93495 -14.0816
rtoes 2.27365
lfemur 0.88936 -2.77704 -25.8404
ltibia 24.0479
lfoot -17.0676 1.58227
ltoes 3.05186
411
root 0.18027 17.7722 45.3514 -2.94549 -0.325141 0.379556
lowerback 11.4461 -0.364567 -1.88655
upperback 0.589446 -0.642929 1.42824
thorax -5.76937 -0.247927 2.66947
lowerneck -16.3009 -3.02549 -3.63185
upperneck 19.6867 -3.90861 2.89717
head 8.99401 -1.793 1.10042
rclavicle 8.4235e-015 -1.15295e-014
rhumerus -31.3063 -13.6318 -82.3392
rradius 32.0149
rwrist 3.61063
rhand -18.6785 19.6382
rfingers 7.12502
rthumb 7.61549 -10.2047
lclavicle 8.4235e-015 -1.15295e-014
lhumerus -23.5068 -4.20831 81.1741
lradius 29.7259
lwrist 7.96282
lhand -27.0331 22.5512
lfingers 7.12502
lthumb -0.452099 52.5305
rfemur -30.7983 -0.701061 21.1892
rtibia 40.9104
rfoot -7.43997 -14.8351
rtoes 2.43713
lfemur 2.03525 -2.72731 -25.6454
ltibia 23.5512
lfoot -17.6142 1.32499
ltoes 2.45019
412
root 0.175723 17.7602 45.529 -2.9057 0.0978578 0.836404
lowerback 11.1049 -0.498566 -2.33239
upperback 1.1099 -0.875904 1.34226
thorax -5.01149 -0.371242 2.85433
lowerneck -17.2872 -2.75922 -3.11875
upperneck 19.5403 -3.51823 2.37279
head 9.08879 -1.61968 0.875896
rclavicle -1.19768e-014 -1.70955e-014
rhumerus -30.3593 -13.7164 -82.6128
rradius 31.6018
rwrist 3.72034
rhand -18.9412 20.1209
rfingers 7.12502
rthumb 7.36195 -9.73099
lclavicle -1.19768e-014 -1.70955e-014
lhumerus -22.0168 -4.49921 81.0602
lradius 29.8331
lwrist 8.30192
lhand -27.232 22.1674
lfingers 7.12502
lthumb -0.644138 52.1462
rfemur -30.4548 -0.613324 20.4278
rtibia 37.5484
rfoot -7.12351 -15.4432
rtoes 1.6728
lfemur 2.77972 -2.75244 -26.1343
ltibia 23.23
lfoot -17.9271 1.07076
ltoes 3.43305
413
root 0.161377 17.7508 45.6927 -2.80033 0.239236 1.48644
lowerback 11.1218 -0.557236 -3.14885
upperback 0.965968 -1.06091 1.24638
thorax -5.14719 -0.441571 3.2463
lowerneck -16.9749 -2.95581 -3.53005
upperneck 19.5235 -3.74492 2.61324
head 9.04671 -1.73316 0.999916
rclavicle -1.04362e-015 8.34896e-015
rhumerus -30.6012 -13.5944 -82.5707
rradius 31.264
rwrist 4.0576
rhand -18.5691 19.7218
rfingers 7.12502
rthumb 7.7211 -10.1173
lclavicle -1.04362e-015 8.34896e-015
lhumerus -21.9376 -4.49743 80.9707
lradius 30.13
lwrist 8.39756
lhand -27.3599 21.6272
lfingers 7.12502
lthumb -0.767727 51.6055
rfemur -30.3706 0.0342749 19.4764
rtibia 34.3943
rfoot -7.02334 -16.2083
rtoes 0.72355
lfemur 3.67773 -2.79131 -26.8273
ltibia 22.169
lfoot -17.6937 1.0157
ltoes 4.11506
414
root 0.141481 17.7388 45.84 -2.5937 0.128548 1.68784
lowerback 11.5654 -0.516712 -3.54708
upperback 0.505248 -1.07554 1.26257
thorax -5.87326 -0.41509 3.50926
lowerneck -15.9317 -2.79803 -3.53289
upperneck 19.2022 -3.55166 2.60015
head 8.74042 -1.65512 1.03251
rclavicle -2.75814e-015 8.74653e-015
rhumerus -31.4135 -13.4103 -82.4594
rradius 31.1884
rwrist 4.14235
rhand -18.4029 18.7228
rfingers 7.12502
rthumb 7.88144 -11.1103
lclavicle -2.75814e-015 8.74653e-015
lhumerus -22.2552 -4.7221 80.9079
lradius 30.571
lwrist 8.56659
lhand -27.8798 21.2776
lfingers 7.12502
lthumb -1.26986 51.2536
rfemur -30.4151 1.29875 18.9636
rtibia 31.2464
rfoot -7.34813 -17.375
rtoes 0.863444
lfemur 4.38845 -2.57145 -26.9699
ltibia 21.1629
lfoot -17.5379 1.05239
ltoes 3.62975
